<?xml version="1.0" standalone="no"?>
<!DOCTYPE svg PUBLIC "-//W3C//DTD SVG 20010904//EN"
 "http://www.w3.org/TR/2001/REC-SVG-20010904/DTD/svg10.dtd">
<svg version="1.0" xmlns="http://www.w3.org/2000/svg"
 width="2000.000000pt" height="2000.000000pt" viewBox="0 0 2000.000000 2000.000000"
 preserveAspectRatio="xMidYMid meet">
<metadata>
Created by potrace 1.11, written by Peter Selinger 2001-2013
</metadata>
<g transform="translate(0.000000,2000.000000) scale(0.100000,-0.100000)"
fill="#000000" stroke="none">
<path d="M0 10000 l0 -10000 10000 0 10000 0 0 2444 0 2443 -322 53 c-3171
516 -3984 647 -3986 645 -2 -2 71 -374 162 -827 99 -488 166 -845 166 -878 -1
-153 -64 -304 -173 -414 -80 -80 -151 -125 -248 -156 -35 -11 -2853 -580
-6262 -1265 -4582 -920 -6216 -1245 -6265 -1245 -37 0 -96 7 -131 15 -96 23
-256 105 -323 165 -61 55 -139 169 -163 241 -8 24 -103 481 -209 1014 -214
1067 -1061 5285 -1322 6580 -91 451 -170 845 -176 875 -13 69 -3 190 22 272
47 151 170 291 314 359 76 35 169 55 1491 320 776 155 1414 286 1418 290 5 3
-14 359 -43 790 -28 431 -73 1124 -100 1539 -27 415 -106 1619 -175 2675 -69
1056 -129 1976 -134 2044 -11 152 0 240 41 339 77 184 241 319 434 356 43 8
156 20 249 25 94 6 724 47 1400 91 1778 116 3588 234 4285 280 333 22 1467 96
2520 165 1053 69 2432 159 3063 200 632 41 1174 75 1205 75 206 0 407 -130
520 -334 91 -164 78 -34 213 -2126 67 -1031 123 -1877 126 -1879 2 -3 189 -35
416 -72 1182 -193 1963 -319 1975 -319 9 0 12 529 12 2610 l0 2610 -10000 0
-10000 0 0 -10000z"/>
<path d="M10470 17913 c-3149 -207 -5726 -376 -5727 -377 -4 -3 481 -7372 486
-7377 7 -7 3622 229 3630 236 5 6 31 163 175 1050 58 358 173 1066 256 1575
83 509 198 1218 256 1575 236 1453 216 1354 293 1471 103 160 307 273 493 274
26 0 422 -61 880 -135 458 -75 1191 -194 1628 -265 437 -71 1418 -231 2179
-354 762 -124 1386 -225 1387 -223 1 1 -40 646 -92 1432 -51 787 -94 1445 -94
1463 0 19 -5 32 -12 31 -7 -1 -2589 -170 -5738 -376z"/>
<path d="M10805 15048 c-7 -23 -1185 -7282 -1182 -7285 2 -2 2336 -382 5188
-846 l5184 -843 3 3745 c1 2059 0 3746 -2 3748 -4 4 -9152 1493 -9173 1493 -8
0 -15 -6 -18 -12z"/>
<path d="M3045 9523 c-561 -113 -1022 -207 -1024 -209 -3 -3 1448 -7245 1453
-7251 2 -2 11247 2256 11262 2261 8 3 -36 239 -135 733 l-148 728 -29 7 c-16
5 -1278 211 -2804 458 l-2775 451 -93 45 c-79 38 -108 60 -181 132 -60 61 -98
109 -124 159 -43 83 -77 204 -77 276 0 27 56 394 125 816 68 421 134 825 145
896 11 72 23 140 25 153 5 20 2 22 -37 22 -23 0 -904 -57 -1958 -126 -1062
-70 -1944 -123 -1980 -120 -98 7 -185 39 -292 106 -116 73 -192 152 -242 253
-38 77 -66 190 -66 265 0 63 -11 152 -19 151 -3 -1 -465 -93 -1026 -206z"/>
</g>
</svg>
